<?xml version="1.0" encoding="UTF-8"?>
<svg id="Camada_1" data-name="Camada 1" xmlns="http://www.w3.org/2000/svg" viewBox="0 0 219.8 61.26">
  <defs>
    <style>
      .cls-1 {
        fill: none;
        stroke: #044386;
        stroke-miterlimit: 10;
        stroke-width: 3.5px;
      }

      .cls-2 {
        fill: #044386;
      }

      .cls-2, .cls-3 {
        stroke-width: 0px;
      }

      .cls-3 {
        fill: #c02a2c;
      }
    </style>
  </defs>
  <path class="cls-2" d="m77.32,18.2c-.45-.96-1.48-2.8-3.54-4.29-1.61-1.17-3.19-1.65-4.16-1.86h-.06l-16.14-.15c-.16,0-.28.12-.28.27v21.03c0,.15-.13.27-.28.27l-11.04-.15c-.1,0-.19-.06-.24-.15L26.24,1.87c-.1-.21-.39-.21-.49,0C17.19,20.75,8.64,39.62.08,58.5c-.25.83.07,1.72.77,2.17.75.48,1.79.35,2.42-.34,3.57-7.82,7.13-15.63,10.7-23.45.05-.1.14-.16.25-.16h24.32c.1,0,.19.06.24.15l10.05,23.23c.05.09,1.43.04,1.53.04h6.7c.15,0,.27-.12.27-.27l.15-23.2c0-.15.12-.27.27-.27h11.4c.99-.22,3.39-.88,5.48-3.02,1.75-1.78,2.44-3.72,2.71-4.7v-10.37s0-.07-.02-.11Zm-61.42,14.29l10.56-22.97,10.55,22.97s-21.11,0-21.11,0Zm37.72,24.67c0,.09-.07.16-.16.16h-2.06c-.07,0-.13-.04-.15-.1l-8.33-19.58v-.06s-.73-1.52-.73-1.52c0-.09.79,0,.88,0h10.39c.09,0,.16.07.16.16,0,0,0,20.94,0,20.94Zm20.01-29.02c-.04.48-.16,1.34-.7,2.25-.74,1.25-1.83,1.84-2.32,2.06-.06.03-.12.04-.19.04h-14.01V15.42c0-.26.21-.47.47-.47h12.41c.27-.01,1.92-.05,3.18,1.24.95.96,1.12,2.11,1.16,2.48,0,0,0,9.47,0,9.47Z"/>
  <circle class="cls-1" cx="105.38" cy="34.49" r="22.83"/>
  <circle class="cls-1" cx="189.17" cy="30.63" r="28.88"/>
  <path class="cls-3" d="m102.15,39.47c.42.16,1.07.35,1.89.36.91,0,1.63-.2,2.07-.36.91-.29,1.55-.71,1.94-1.01.34-.26.7-.54,1.01-1.01.51-.78.69-1.64.68-2.04.12-.67.09-1.67-.13-2.92-.27-1.48-.79-2.65-1.2-3.25,0,0-1.04-1.93-3.33-5.8-.13-.22-.42-.69-.84-.72-.47-.04-.86.47-1.05.72-2.67,3.56-3.61,5.88-3.61,5.88-.58,1.19-.83,2.24-.96,2.97-.11.62-.29,2.08.06,3.66.13.58.29.99.51,1.37.08.14.38.63.94,1.12.74.64,1.53.91,2.02,1.03Z"/>
  <polygon class="cls-2" points="133.42 13.37 136.73 13.37 136.73 55.59 147.28 55.59 147.28 59.51 133.42 59.51 133.42 13.37"/>
  <polygon class="cls-2" points="148.71 13.37 152.01 13.37 152.01 55.59 162.57 55.59 162.57 59.51 148.71 59.51 148.71 13.37"/>
</svg>